<svg id="Warstwa_1" data-name="Warstwa 1" xmlns="http://www.w3.org/2000/svg" viewBox="0 0 115.53 45.35"><defs><style>.cls-1{fill:#3b3b3b;}</style></defs><title>logo_foster_2</title><path class="cls-1" d="M11.35,34.85l4-.84,3-16a1.31,1.31,0,0,1,.33-.7L5.19,18.47a.69.69,0,0,1-.48-.15.6.6,0,0,1-.23-.42.53.53,0,0,1,.13-.45A.75.75,0,0,1,5,17.21L45,12a1.62,1.62,0,0,1,1.2.29,1.51,1.51,0,0,1,.59,1.6,1.4,1.4,0,0,1-.27.53,1.62,1.62,0,0,1-.46.4,1.82,1.82,0,0,1-.61.2h-.07L20.87,17.1a1.52,1.52,0,0,1,.46.63,1.37,1.37,0,0,1,.09.8l0,.11-4,14.93,14.2-3a1.58,1.58,0,0,1,1.2.19,1.48,1.48,0,0,1,.72,1,1.28,1.28,0,0,1-.21,1.13,1.62,1.62,0,0,1-1,.67l-.11,0-15.32,2.1-2.13,8a.46.46,0,0,1-.25.34A.72.72,0,0,1,14,44a.6.6,0,0,1-.34-.24.53.53,0,0,1-.08-.41L15,35.9l-3.33.46a.81.81,0,0,1-.59-.14.73.73,0,0,1-.31-.51.7.7,0,0,1,.13-.54.75.75,0,0,1,.49-.32" transform="translate(-4.47 -6.52)"/><path class="cls-1" d="M35.24,29.71q-.15.24-.3.45l-.27.45a6,6,0,0,0-.47.95l-.09.23L34,32a2.33,2.33,0,0,0-.07.25,1.23,1.23,0,0,1-.08.23,1.22,1.22,0,0,0-.06.26.85.85,0,0,1,0,.23l0,.24a1.62,1.62,0,0,0,0,.22,1.82,1.82,0,0,0,0,.38.27.27,0,0,1,0,.1l0,0,0,0h.22a.33.33,0,0,0,.14,0c.1,0,.2-.12.31-.19l.33-.31a1.25,1.25,0,0,1,.15-.19l.14-.21.26-.42.22-.46a4.89,4.89,0,0,0,.2-.48c0-.12.07-.23.1-.35s.07-.23.1-.35a3.83,3.83,0,0,1-.2-.63,5,5,0,0,1-.13-.73l-.07-.38v-.08l-.21.26a1.71,1.71,0,0,1-.21.26m2.82,1.39.06.08.05,0a.18.18,0,0,0,.11,0l.17,0,.11,0a.22.22,0,0,0,.12,0L38.9,31l.22-.17a3.16,3.16,0,0,0,.42-.4,5.76,5.76,0,0,0,.4-.43,2.74,2.74,0,0,0,.37-.49l.18-.25a1.09,1.09,0,0,0,.08-.15l.08-.12a.83.83,0,0,0,.07-.13s.05-.09.08-.14l.08-.13.08-.15.26-.54a.67.67,0,0,1,.41-.41.76.76,0,0,1,.61,0,.67.67,0,0,1,.41.38.68.68,0,0,1,0,.56l-.07.13h0l-.17.28-.2.28-.18.28-.4.54-.2.27-.4.55a2,2,0,0,1-.22.27,2.84,2.84,0,0,1-.24.26,4.21,4.21,0,0,1-.51.52l-.29.25-.14.12-.19.11-.38.21a1.54,1.54,0,0,1-.46.15,2.4,2.4,0,0,1-.56.06,4.39,4.39,0,0,1-.57-.12.11.11,0,0,0-.07,0,.05.05,0,0,1,0,0,4.17,4.17,0,0,1-.26.46l-.28.42c-.11.17-.24.34-.37.51s-.28.33-.44.5l-.51.46a3.62,3.62,0,0,1-.33.2,2,2,0,0,1-.36.18,2.17,2.17,0,0,1-.44.11l-.22,0,0,0h-.2a1.46,1.46,0,0,1-.49-.09l-.23-.1a1.14,1.14,0,0,1-.23-.15,1.67,1.67,0,0,1-.36-.4l-.1-.2c0-.06,0-.13-.07-.2a2.14,2.14,0,0,1-.14-.73c0-.11,0-.22,0-.32s0-.22,0-.33,0-.22,0-.31a2,2,0,0,1,.06-.32l.13-.59.06-.29c0-.08.06-.18.09-.29l.4-1.14.51-1.09a9.27,9.27,0,0,1,.6-1.09c.07-.1.14-.19.19-.28a1.15,1.15,0,0,1,.19-.26l.24-.28a.76.76,0,0,1,.11-.14c0-.05.09-.09.13-.15l.34-.27.21-.14a1.54,1.54,0,0,1,.23-.14,2,2,0,0,1,.29-.11,2.47,2.47,0,0,1,.35-.1l.21,0h.21l.22,0h.09l0,0h.09a1.35,1.35,0,0,1,.94.5,1.2,1.2,0,0,1,.3,1l0,.19a1.9,1.9,0,0,1,.09.32l0,.22a1.62,1.62,0,0,1,0,.22v.4c0,.11,0,.22,0,.34a2,2,0,0,1-.06.35l-.15.63c-.06.18-.12.35-.17.52a3.52,3.52,0,0,1-.19.51s0,0,0,0" transform="translate(-4.47 -6.52)"/><path class="cls-1" d="M43.19,27.72l0,0s0,0,0,0l0,.06Zm-.15.65c0,.11,0,.22,0,.34l0,.33c0,.24.08.48.13.73a6.67,6.67,0,0,0,.23.72c.07.22.15.44.23.66s.17.43.25.64c.2-.24.38-.48.56-.72l.53-.75c.28-.39.55-.79.81-1.18s.51-.8.76-1.21A.71.71,0,0,1,47,27.6a.73.73,0,0,1,.54.08.75.75,0,0,1,.35.43.57.57,0,0,1-.09.53c-.25.42-.51.83-.78,1.24l-.85,1.22c-.27.39-.54.77-.82,1.15s-.57.75-.87,1.11a1.5,1.5,0,0,1,0,.29,2.46,2.46,0,0,1,0,.28A3.68,3.68,0,0,1,44.39,35a2.92,2.92,0,0,1-.19.49L44,36l-.31.42c-.11.12-.22.24-.34.35a4.17,4.17,0,0,1-.75.65,2.79,2.79,0,0,1-.38.3l-.42.25-.4.23a1,1,0,0,0-.22.1l-.11,0-.06,0-.07,0a.73.73,0,0,1-.54,0,.66.66,0,0,1-.41-.34.5.5,0,0,1,0-.56v0a8.72,8.72,0,0,1,.75-1.35l.41-.62c.14-.21.28-.42.43-.61l1-1.33-.06-.14-.13-.27,0-.07-.07-.1-.11-.19-.43-.8c-.14-.26-.27-.54-.39-.82a8.85,8.85,0,0,1-.64-1.76q0-.23-.09-.48a4.53,4.53,0,0,1-.06-.5,1.37,1.37,0,0,1,0-.28V28a2.81,2.81,0,0,1,0-.29,1.53,1.53,0,0,1,0-.3c0-.11.05-.22.08-.33a1.46,1.46,0,0,1,.1-.34l.17-.35a1.56,1.56,0,0,1,.14-.19l.15-.19a3.77,3.77,0,0,1,.44-.38,2.05,2.05,0,0,1,.67-.27,2.2,2.2,0,0,1,.37-.06,1.75,1.75,0,0,1,.4,0,2.22,2.22,0,0,1,.67.23l.51.35a.88.88,0,0,1,.38.63,1,1,0,0,1-.18.74,1.1,1.1,0,0,1-.22.21l-1.09.73a.5.5,0,0,0,0,.19" transform="translate(-4.47 -6.52)"/><path class="cls-1" d="M48.62,22.81l.55-1.26v0l2.77-.46-.18.42c0,.11-.09.22-.13.31a3,3,0,0,0-.11.32l-.27.61L48.53,23Zm-.87-1,1-.14a2.05,2.05,0,0,1,.15-.42,4.5,4.5,0,0,1,.25-.65l.26-.7.31-.69.2-.38a.31.31,0,0,0,.07-.09.45.45,0,0,1,.06-.12.62.62,0,0,1,.09-.12.57.57,0,0,1,.14-.17.49.49,0,0,1,.11-.13.27.27,0,0,0,.07-.08.28.28,0,0,1,.12-.08l.18-.11a1.1,1.1,0,0,1,.31-.12l.12,0,.17,0h.2a1.1,1.1,0,0,1,.38.07,2,2,0,0,1,.42.18,1.28,1.28,0,0,1,.31.28,1.18,1.18,0,0,1,.2.27.19.19,0,0,1,.05.1.81.81,0,0,0,0,.11A.84.84,0,0,1,53,19a.58.58,0,0,1,0,.19.66.66,0,0,1,0,.15s0,.08,0,.1a.34.34,0,0,1,0,.11.22.22,0,0,0,0,.08l-.07.25-.13.44-.16.36-.11.32,18.16-3.07a1.55,1.55,0,0,1,1.07.24,1.34,1.34,0,0,1,.59.88,1.21,1.21,0,0,1-.23,1,1.43,1.43,0,0,1-.94.57h-.09L51.63,22.69l-.08.14a.69.69,0,0,0,0,.13l-.18.29-.35.63-.4.63c0,.14-.09.27-.15.4s-.1.25-.14.38l-.49,1.28-.46,1.3-.47,1.28-.44,1.3c-.07.22-.15.44-.22.66s-.15.43-.22.64l-.2.65-.2.67-.2.65-.09.32-.09.33c-.06.22-.11.44-.16.66s-.1.44-.15.66-.09.44-.13.66-.08.44-.11.66,0,.22,0,.32,0,.2,0,.31a2.33,2.33,0,0,0,0,.32.62.62,0,0,0,0,.13.71.71,0,0,1,0,.14v0l.11,0,.23-.17.24-.21.23-.22.23-.24.45-.5.42-.55.8-1.11L50,34l.37-.58.34-.59c.23-.41.46-.81.68-1.22s.44-.81.64-1.21l.62-1.24.29-.63.16-.32.13-.31a.68.68,0,0,1,.34-.33.66.66,0,0,1,.48,0,.65.65,0,0,1,.34.33.51.51,0,0,1,0,.45s0,0,0,0l-.69,1.22-.66,1.24-1.4,2.43-.35.61-.36.61c-.13.19-.26.39-.38.6l-.37.59-.8,1.18-.43.57c-.14.19-.29.39-.45.58l-.26.27-.27.28a5.49,5.49,0,0,1-.62.52,1.69,1.69,0,0,1-.45.21,1.3,1.3,0,0,1-.29.08.26.26,0,0,1-.15,0h-.11a.23.23,0,0,1-.13,0,.64.64,0,0,1-.27-.08.86.86,0,0,1-.2-.15,1.06,1.06,0,0,1-.22-.29.58.58,0,0,1-.06-.15.14.14,0,0,0,0-.1l0-.23,0-.21a1.48,1.48,0,0,1,0-.21,1.37,1.37,0,0,1,0-.19v-.56c0-.11,0-.24,0-.36s0-.48.06-.71,0-.46.07-.7c.08-.47.15-.94.23-1.4s.14-.92.22-1.37l.26-1.38c0-.23.09-.45.14-.67s.09-.46.15-.7l.31-1.4a.67.67,0,0,1-.16-.59c.08-.25.15-.47.23-.67s.06-.22.1-.33a2.56,2.56,0,0,1,.12-.32c.07-.22.15-.44.24-.65l.27-.65c.16-.39.32-.78.47-1.17L48.53,23l-.29,0,.18-.59a5.27,5.27,0,0,1,.2-.6l.09-.25.46-.09.27-.61.26-.61.22-.58a.93.93,0,0,0,.07-.15,1.31,1.31,0,0,0,0-.15l.06-.23a0,0,0,0,0,0,0v.17a1.33,1.33,0,0,0,.05.21l.09.19.15.23.29.25.2.08.18.07a1.16,1.16,0,0,0,.33.06h.18l.16,0,.1,0,.17-.05a.27.27,0,0,0,.1-.06l.08,0,.07,0,.14-.11a1.73,1.73,0,0,1-.12.25l-.26.57a.85.85,0,0,0-.09.19l.55-.08-.17.37L52,22l-.16.32-.18.31,0,.05-.38,0v0l-.34.88c-.11.29-.22.59-.34.88l-.36.57c-.22.37-.48.77-.77,1.17-.13.2-.27.39-.41.58l-.43.57-.42.57-.47.55a.72.72,0,0,1-.43.22.6.6,0,0,1-.46-.14l0,0c.15-.67.31-1.34.48-2s.35-1.34.54-2c.07-.25.15-.5.22-.75s.15-.5.22-.74l-.29,0a.62.62,0,0,1-.5-.12.69.69,0,0,1-.27-.46.57.57,0,0,1,.13-.49.73.73,0,0,1,.44-.25" transform="translate(-4.47 -6.52)"/><path class="cls-1" d="M54,31.68a.69.69,0,0,1,0,.13l.06,0s0,0,.05-.06a1,1,0,0,0,.27-.3,4.41,4.41,0,0,0,.24-.38,2.14,2.14,0,0,0,.18-.44c0-.15.08-.3.11-.46a.06.06,0,0,1,0,0s0,0,0-.06V30l0-.06.05-.27.07-.53a.07.07,0,0,1,0-.05.12.12,0,0,0,0-.05l-.07.13c-.09.15-.17.3-.25.45a4.76,4.76,0,0,0-.24.45l-.24.48-.2.48-.15.36a1,1,0,0,0,0,.18.4.4,0,0,0,0,.15M53.14,34a4.46,4.46,0,0,0-.07.51c0,.16,0,.32,0,.48a1.93,1.93,0,0,0,0,.24l0,.22a.41.41,0,0,0,0,.17l0,.14,0,.09a.08.08,0,0,1,0,0h.11a1.22,1.22,0,0,0,.35-.06l.19-.1.21-.11a4.7,4.7,0,0,0,.41-.3l.41-.33c.13-.11.27-.23.4-.36a4.83,4.83,0,0,0,.38-.4l.73-.82.34-.44.34-.44.67-.9c.2-.31.41-.61.62-.92s.4-.62.6-.95l.28-.48.29-.48.27-.48.2-.38.06-.1v0a.75.75,0,0,1,.47-.38.8.8,0,0,1,.62,0,.68.68,0,0,1,.41.42.78.78,0,0,1,0,.58l0,.07-.31.5-.33.48-.31.47a2.13,2.13,0,0,0-.16.25,1.14,1.14,0,0,1-.15.23l-.66,1c-.21.32-.44.63-.67.94-.12.15-.23.31-.35.47s-.22.32-.34.47l-.71.9a4,4,0,0,1-.37.45l-.4.45c-.13.16-.27.3-.4.44a6,6,0,0,1-.44.42,5.75,5.75,0,0,1-1,.8l-.29.19-.33.17-.35.12-.21.07-.22,0-.24,0H53a2.26,2.26,0,0,1-.54-.15,3,3,0,0,1-.44-.33l-.15-.19-.14-.19-.09-.18a1.59,1.59,0,0,1-.08-.18l-.12-.36c0-.11,0-.22-.06-.33s0-.23,0-.34,0-.42,0-.63a5.9,5.9,0,0,1,0-.6,2.91,2.91,0,0,1,0-.31,2.81,2.81,0,0,0,0-.3l.07-.59c0-.41.1-.8.16-1.19s.16-.76.26-1.14A12.18,12.18,0,0,1,52.58,28q.14-.3.27-.57c.09-.18.19-.37.31-.57l.18-.29.19-.27a2.79,2.79,0,0,1,.24-.31l.27-.28a1.33,1.33,0,0,1,.34-.3l.21-.15a1,1,0,0,1,.25-.14,2.86,2.86,0,0,1,.67-.25h.2s.06,0,.11,0h.24a.24.24,0,0,1,.13,0,1.16,1.16,0,0,1,.27,0,2,2,0,0,1,.55.23,2.75,2.75,0,0,1,.42.36l.08.09.06.1.11.16.15.34.07.27,0,.25a.75.75,0,0,1,0,.21v.21a4.11,4.11,0,0,1-.06.72c0,.11-.06.22-.08.32a2.81,2.81,0,0,1-.08.31c0,.18-.1.38-.17.6a.94.94,0,0,0-.12.28l-.13.29a4.86,4.86,0,0,1-.24.55l-.13.27-.07.15-.07.14a6.64,6.64,0,0,1-.73,1.11l-.22.27a2.84,2.84,0,0,1-.24.26l-.27.23-.33.23-.38.19a1.74,1.74,0,0,1-.51.13h-.31l-.33-.11a.15.15,0,0,1-.11,0l-.13.44Z" transform="translate(-4.47 -6.52)"/><path class="cls-1" d="M66.29,31.1l0,0h0v0Zm-6.11-3.23,2.12-4.2,0-.08v0l.13-.25a1.22,1.22,0,0,1,.75-.66,1.3,1.3,0,0,1,1,.05,1.25,1.25,0,0,1,.64.62,1.1,1.1,0,0,1,.09.83l-.09.31-.31.67-.31.69-.59,1.39q-.31.69-.6,1.38L62.48,30l-.13.31c.29-.38.6-.75.92-1.11s.64-.73,1-1.09l.52-.54.52-.51.56-.5.26-.25.16-.13.11-.11h0l0,0a1.45,1.45,0,0,1,1-.31,1.4,1.4,0,0,1,1,.46,1.33,1.33,0,0,1,.32.65,1.35,1.35,0,0,1-.08.69l-.22.34a.45.45,0,0,1-.09.1,1.26,1.26,0,0,0-.18.21h0l0,0h0l0,0a1.1,1.1,0,0,0-.2.23l-.18.23a5.66,5.66,0,0,0-.68,1,2.38,2.38,0,0,0-.29.53.94.94,0,0,0-.11.25,1.37,1.37,0,0,0-.09.25.46.46,0,0,0-.07.23.31.31,0,0,0,0,.11.16.16,0,0,1,.11-.05,1.91,1.91,0,0,0,.67-.15,4,4,0,0,0,.76-.44,5.07,5.07,0,0,0,.74-.66,3.92,3.92,0,0,0,.6-.82l.29-.53.13-.29.07-.12,0-.09v0a.08.08,0,0,0,0,0,.69.69,0,0,1,.33-.45.78.78,0,0,1,.58-.1.73.73,0,0,1,.48.32.61.61,0,0,1,.07.54.49.49,0,0,1-.13.27l0,.07-.23.27-.2.27-.42.53a10.37,10.37,0,0,1-1.91,1.9,3.42,3.42,0,0,1-2,.74h-.29l-.18,0a.68.68,0,0,1-.2,0,1.77,1.77,0,0,1-.35-.25,2.61,2.61,0,0,1-.2-.3l-.09-.27a.67.67,0,0,1,0-.24v-.56c-.21.17-.41.35-.6.53l-.58.54c-.34.32-.66.65-1,1s-.61.67-.91,1a20.65,20.65,0,0,0-1.57,2.19.71.71,0,0,1-.37.33.6.6,0,0,1-.49,0,.75.75,0,0,1-.33-.25.46.46,0,0,1-.07-.38v-.06c0-.28.06-.55.1-.8s.07-.5.12-.75.11-.5.15-.76.11-.5.18-.75c.12-.51.24-1,.37-1.49s.25-1,.38-1.47l.18-.57a.71.71,0,0,1-.33-.16.87.87,0,0,1-.26-.39.65.65,0,0,1,.06-.45" transform="translate(-4.47 -6.52)"/><path class="cls-1" d="M100.24,8.53,93.81,27l4.83-2a1.57,1.57,0,0,1,1.22,0,1.53,1.53,0,0,1,.89.82,1.33,1.33,0,0,1,0,1.15,1.51,1.51,0,0,1-.86.84.15.15,0,0,1-.11,0L92.71,30.2,86.28,48.68A.46.46,0,0,1,86,49a.6.6,0,0,1-.42,0,.46.46,0,0,1-.32-.25.47.47,0,0,1,0-.38L90.32,31l-9,3.07-2.59,7.09a.56.56,0,0,1-.3.32.69.69,0,0,1-.45,0,.56.56,0,0,1-.33-.27.51.51,0,0,1,0-.42l1.75-6.1-1.62.54a.7.7,0,0,1-.55,0,.74.74,0,0,1-.38-.4.59.59,0,0,1,0-.52.7.7,0,0,1,.36-.36l2.72-1.13,5.76-20a1.41,1.41,0,0,1,.29-.54,1.68,1.68,0,0,1,1-.57,1.65,1.65,0,0,1,.63,0,1.57,1.57,0,0,1,1,.72,1.37,1.37,0,0,1,.15,1.15.06.06,0,0,1,0,0s0,0,0,0L82.08,31.92l9.08-3.82,6-20.46a1.52,1.52,0,0,1,.75-.92,1.62,1.62,0,0,1,1.22-.15,1.57,1.57,0,0,1,1,.73,1.37,1.37,0,0,1,.16,1.16s0,0,0,0,0,0,0,0" transform="translate(-4.47 -6.52)"/><path class="cls-1" d="M98,22.27l.11-1.18a1.36,1.36,0,0,1,.54-.94,1.54,1.54,0,0,1,1.06-.32,1.37,1.37,0,0,1,1,.5,1.4,1.4,0,0,1,.33,1,1.67,1.67,0,0,1-.14.46l-.55,1.09a1.12,1.12,0,0,1-.71.6,1.25,1.25,0,0,1-1,0,1.17,1.17,0,0,1-.54-.49,1,1,0,0,1-.15-.68m1.15,6.29,0,.12-.07.11L99,29l-.11.23-.11.25-.21.5c-.07.16-.13.32-.19.49l-.2.5c-.06.17-.11.34-.17.51l-.18.5-.16.5-.13.51a1.54,1.54,0,0,0-.13.5c0,.11-.06.21-.08.31s0,.19-.06.3l.21-.25.35-.42.33-.42.36-.42.33-.44.33-.42.66-.88.32-.42.33-.44.15-.23.16-.21.31-.46.15-.21.16-.24.32-.45c.09-.14.19-.29.28-.45a.75.75,0,0,1,.47-.32.75.75,0,0,1,.57.07.77.77,0,0,1,.34.44.61.61,0,0,1-.1.53.2.2,0,0,1,0,.08c-.12.15-.24.3-.36.43a5,5,0,0,0-.35.43l-.18.21-.16.21a1.24,1.24,0,0,0-.18.22l-.17.22-.16.21-.17.21-.34.44-.33.42-1,1.32-.67.86-.66.88-.34.44c-.12.14-.23.29-.35.44l-.18.23-.19.23-.16.15,0,0-.08,0s0,0-.07,0l0,0,0,0h0l0,0-.07,0H96.6l-.28-.06a1.46,1.46,0,0,1-.25-.15L96,36.07,95.9,36l-.09-.14-.07-.15a.51.51,0,0,0,0-.1l-.07-.21c0-.07,0-.14,0-.19a1,1,0,0,1,0-.17,1.72,1.72,0,0,1,0-.31v-.3l0-.57a5.67,5.67,0,0,1,.05-.58l.07-.55.07-.54L96.1,30l.17-1.1.07-.54.09-.55v0a1.29,1.29,0,0,1,.54-.92A1.38,1.38,0,0,1,98,26.59a1.41,1.41,0,0,1,1,.51,1.35,1.35,0,0,1,.31,1,.86.86,0,0,1-.07.21l-.09.21" transform="translate(-4.47 -6.52)"/><path class="cls-1" d="M103.34,29.71l-.36.49-.35.52c-.12.18-.23.36-.33.53s-.21.36-.31.56l-.31.55-.27.58c-.09.2-.17.39-.24.58a3,3,0,0,0-.18.58l-.07.27q0,.09,0,.15a.49.49,0,0,0,0,.12v.19a.58.58,0,0,0,.18-.17l.4-.46.37-.5.35-.55.34-.56.6-1.16c.16-.32.32-.65.47-1l.46-1a2.45,2.45,0,0,1-.38-.15Zm-2.62,5.2,0,0s0,0,0,0m4.35-8.16s0,0,0,0l0-.06v0a.68.68,0,0,1,.39-.42.73.73,0,0,1,.58,0,.69.69,0,0,1,.42.34.63.63,0,0,1,0,.52l0,0,0,0h0l0,.06-2.35,7.68c.18-.29.36-.58.55-.87l.56-.87c.58-.89,1.17-1.78,1.77-2.64s1.23-1.73,1.87-2.58a.69.69,0,0,1,.45-.29.7.7,0,0,1,.52.12.71.71,0,0,1,.28.41.62.62,0,0,1-.1.47q-1.73,2.63-3.26,5.35c-.52.91-1,1.82-1.49,2.74s-.94,1.84-1.39,2.78-.9,1.85-1.32,2.79-.83,1.88-1.23,2.85L100.24,48l-.53,1.45-.25.74-.11.35v0l-.11.34,0,.06a1.33,1.33,0,0,1-.73.79,1.47,1.47,0,0,1-1.11.05,1.37,1.37,0,0,1-.83-.69A1.28,1.28,0,0,1,96.49,50l.07-.17v0l0-.08,5.29-14.35a.45.45,0,0,0-.13.11,1.07,1.07,0,0,1-.16.14l-.18.15-.22.12a1.28,1.28,0,0,1-.33.11h-.35l0,0h0a.77.77,0,0,1-.2-.09.32.32,0,0,1-.18-.1.54.54,0,0,1-.15-.15l-.11-.15a.94.94,0,0,1-.11-.25.21.21,0,0,1,0-.12.51.51,0,0,0,0-.13,1.52,1.52,0,0,1,0-.21,1.49,1.49,0,0,1,0-.21v-.38a.9.9,0,0,1,0-.18c0-.06,0-.12,0-.17s0-.25,0-.37,0-.23.07-.35l.13-.69c0-.11.06-.22.08-.33a3.38,3.38,0,0,1,.08-.34l.17-.67c.06-.22.13-.44.2-.66s.15-.44.22-.66.18-.44.27-.65.19-.43.31-.65l.38-.65.24-.34a.83.83,0,0,1,.12-.16,1.29,1.29,0,0,0,.15-.17c.06-.06.11-.12.17-.17l.2-.19.29-.19.18-.09a.9.9,0,0,1,.22-.1,2.24,2.24,0,0,1,.29-.08.42.42,0,0,1,.17,0h.07l0,0h.06a2.23,2.23,0,0,1,.47.06l.26.06.27.13.26.19v0Z" transform="translate(-4.47 -6.52)"/><path class="cls-1" d="M108.76,27.91l.49-.95c.16-.3.33-.62.49-.94.09-.15.17-.31.26-.47l.25-.47.53-.93,1-1.84.27-.46.22-.61.35-1c.12-.34.25-.68.38-1,.07-.18.15-.35.22-.52s.15-.34.22-.53l.27-.54a.64.64,0,0,0,.08-.14,1.19,1.19,0,0,0,.09-.15l0-.09a.17.17,0,0,1,.07-.08l.15-.21.11-.13.07-.06.08-.09.12-.08a.18.18,0,0,1,.09-.06l.11-.07.26-.12.11,0h.49a.24.24,0,0,1,.13,0h.18s0,0,0,0l.08,0a.49.49,0,0,1,.17.06l.18.09a1.26,1.26,0,0,1,.31.25l.11.12.09.15a.89.89,0,0,1,.12.24c0,.08,0,.15.06.2a.45.45,0,0,1,0,.18V18a.22.22,0,0,1,0,.08.25.25,0,0,0,0,.08,1.09,1.09,0,0,0,0,.26l-.14.37a1.25,1.25,0,0,1-.11.31c0,.09-.09.18-.13.28l-.27.53-.57,1a5.5,5.5,0,0,1-.28.48,3.46,3.46,0,0,1-.32.46c-.07.1-.14.2-.19.29a1.15,1.15,0,0,1-.19.26c-.23.61-.46,1.23-.68,1.84s-.44,1.22-.64,1.85l-1.29,3.61.36-.57c.11-.18.23-.36.35-.54a2.4,2.4,0,0,0,.19-.29,1.43,1.43,0,0,1,.19-.26l.39-.56.25-.28.26-.29.16-.17c.06,0,.1-.05.11-.08l.16-.11a1.34,1.34,0,0,1,.24-.12l.2-.07.15,0h0s0,0,0,0h.13l0,0h.2a1.8,1.8,0,0,1,.31.15.84.84,0,0,1,.22.17.52.52,0,0,1,.15.17.62.62,0,0,1,.09.12l.07.13.07.21,0,.15a.49.49,0,0,1,0,.12,1.3,1.3,0,0,1,0,.23v.4a1.37,1.37,0,0,1,0,.19,1,1,0,0,1,0,.18,1,1,0,0,0,0,.18l-.11.65-.14.65c0,.21-.09.42-.14.63s-.11.41-.17.63a.54.54,0,0,0,0,.18l2.83-3.6a.67.67,0,0,1,.4-.24.63.63,0,0,1,.47.13.6.6,0,0,1,.24.38.5.5,0,0,1-.13.44l-5.12,6.54a.66.66,0,0,1-.42.23.59.59,0,0,1-.46-.1.54.54,0,0,1-.22-.63,1.52,1.52,0,0,1,0-.31,3,3,0,0,1,0-.32l0-.15,0-.16,0-.32.2-1.22.33-2c-.19.27-.37.53-.54.79l-.52.78-1.37,2.12-1.4,2.14L109.79,37c-.23.35-.46.7-.72,1.05a.5.5,0,0,1-.3.32.59.59,0,0,1-.73-.26.48.48,0,0,1-.05-.35l0-.11a1.09,1.09,0,0,0,0-.26,1.1,1.1,0,0,1,.06-.26l0-.25,0-.28q.06-.24.12-.51c0-.17.07-.35.1-.51.07-.35.15-.7.22-1l.24-1c.17-.69.33-1.37.49-2.06s.33-1.37.51-2.05l.31-1.22-.4.4a.62.62,0,0,1-.44.17.6.6,0,0,1-.44-.17.47.47,0,0,1-.19-.32.6.6,0,0,1,.05-.35" transform="translate(-4.47 -6.52)"/></svg>