<?xml version="1.0" encoding="utf-8"?>
<!-- Generator: Adobe Illustrator 22.1.0, SVG Export Plug-In . SVG Version: 6.00 Build 0)  -->
<svg version="1.1" id="Capa_1" xmlns="http://www.w3.org/2000/svg" xmlns:xlink="http://www.w3.org/1999/xlink" x="0px" y="0px"
	 viewBox="0 0 512 512" style="enable-background:new 0 0 512 512;" xml:space="preserve">
<style type="text/css">
	.st0{fill:#A47B08;}
</style>
<g>
	<g>
		<g>
			<path class="st0" d="M437,75c-43-43-100.1-69.4-160.7-74.2c-59.9-4.7-119.7,11.7-168.5,46.4c-4.5,3.2-5.6,9.4-2.4,13.9
				c3.2,4.5,9.4,5.6,13.9,2.4C213.5-3.4,341.1,7.4,422.9,89.1C467.5,133.7,492,193,492,256s-24.5,122.3-69.1,166.9
				C378.3,467.5,319,492,256,492s-122.3-24.5-166.9-69.1C7,340.7-3.5,212.8,64.1,118.6c3.2-4.5,2.2-10.7-2.3-14
				c-4.5-3.2-10.7-2.2-14,2.3c-35,48.7-51.7,108.7-47.1,168.9C5.4,336.6,31.8,393.8,75,437c48.4,48.4,112.6,75,181,75
				s132.7-26.6,181-75c48.4-48.4,75-112.6,75-181S485.4,123.3,437,75z"/>
		</g>
	</g>
	<g>
		<g>
			<path class="st0" d="M89.2,74.9C85.3,71,79,71,75.1,74.9l-0.2,0.2C71,79,71,85.3,74.9,89.2c2,2,4.5,2.9,7.1,2.9
				c2.6,0,5.1-1,7.1-2.9l0.2-0.2C93.1,85.2,93.1,78.8,89.2,74.9z"/>
		</g>
	</g>
	<g>
		<g>
			<path class="st0" d="M327.7,141c-26.8,0-51.9,9.7-71.7,27.6c-19.8-17.9-44.9-27.6-71.7-27.6c-60,0-108.7,49.9-108.7,111.3
				c0,35.5,29.8,79.3,88.7,130.1c42.7,36.8,84.6,63.5,86.4,64.6c1.6,1,3.5,1.6,5.3,1.6s3.7-0.5,5.3-1.6c1.8-1.1,43.7-27.8,86.4-64.6
				c58.9-50.8,88.7-94.5,88.7-130.1C436.5,190.9,387.7,141,327.7,141z M256,426.6c-12.6-8.4-45.8-31-78.7-59.4
				c-53.5-46.2-81.8-85.9-81.8-114.9c0-50.3,39.8-91.3,88.7-91.3c24.6,0,47.4,10.1,64.4,28.5c1.9,2.1,4.6,3.2,7.4,3.2
				c2.8,0,5.5-1.2,7.4-3.2c16.9-18.4,39.8-28.5,64.4-28.5c48.9,0,88.7,40.9,88.7,91.3C416.5,309.8,305.4,394.4,256,426.6z"/>
		</g>
	</g>
	<g>
		<g>
			<g>
				<path class="st0" d="M280.1,204.6L280.1,204.6c-3.9,4.1-3.7,10.4,0.4,14.2c1.9,1.8,4.4,2.7,6.8,2.7c2.7,0,5.3-1.1,7.3-3.2
					l0.2-0.2c3.7-4.1,3.5-10.4-0.6-14.1C290.2,200.3,283.8,200.6,280.1,204.6z"/>
				<path class="st0" d="M327.7,183.6c-3.7,0-7.5,0.3-11.1,1c-5.4,1-9.1,6.1-8.1,11.6c1,5.4,6.1,9.1,11.6,8.1
					c2.5-0.4,5.1-0.7,7.7-0.7c25.4,0,46.1,21.8,46.1,48.7c0,5.5,4.5,10,10,10c5.5,0,10-4.5,10-10
					C393.8,214.4,364.2,183.6,327.7,183.6z"/>
			</g>
		</g>
	</g>
	<g>
		<g>
			<path class="st0" d="M256,49.1c-5.5,0-10,4.5-10,10v26.1c0,5.5,4.5,10,10,10c5.5,0,10-4.5,10-10V59.1
				C266,53.6,261.5,49.1,256,49.1z"/>
		</g>
	</g>
	<g>
		<g>
			<path class="st0" d="M165.6,105.5L147.1,87c-3.9-3.9-10.2-3.9-14.1,0c-3.9,3.9-3.9,10.2,0,14.1l18.5,18.5c2,2,4.5,2.9,7.1,2.9
				s5.1-1,7.1-2.9C169.5,115.7,169.5,109.4,165.6,105.5z"/>
		</g>
	</g>
	<g>
		<g>
			<path class="st0" d="M379,87c-3.9-3.9-10.2-3.9-14.1,0l-18.5,18.5c-3.9,3.9-3.9,10.2,0,14.1c2,2,4.5,2.9,7.1,2.9s5.1-1,7.1-2.9
				l18.5-18.5C382.9,97.3,382.9,90.9,379,87z"/>
		</g>
	</g>
</g>
</svg>
