<?xml version="1.0" encoding="utf-8"?>
<!-- Generator: Adobe Illustrator 22.1.0, SVG Export Plug-In . SVG Version: 6.00 Build 0)  -->
<svg version="1.1" id="Capa_1" xmlns="http://www.w3.org/2000/svg" xmlns:xlink="http://www.w3.org/1999/xlink" x="0px" y="0px"
	 viewBox="0 0 578.1 578.1" style="enable-background:new 0 0 578.1 578.1;" xml:space="preserve">
<style type="text/css">
	.st0{fill:#3B3B3B;}
</style>
<g>
	<g>
		<path class="st0" d="M368.4,536.9c-4.5,5.8-10.6,8.8-18.2,8.8l-89.2-0.3c-4.3,0.2-8.8-0.5-13.6-2.2s-9-3.9-12.6-6.6
			c-0.2-0.2-1-0.8-2.2-1.9c-1.2-1-2.7-2.4-4.5-4.2c-4.3-4.3-10.4-11.9-18.5-22.9c-8.1-11-16.2-26.3-24.2-45.8
			C177.1,442.2,170,418,164,389c-6.1-29-9-63.3-8.8-103c-0.2-31.2,1.6-59,5.4-83.5c3.8-24.5,8.6-45.9,14.3-64.2s11.9-33.9,18.5-46.8
			s12.9-23.5,18.9-31.7c5.9-8.2,11.1-14.2,15.3-18c4.3-3.8,6.6-5.9,7.1-6.4c3.6-2.7,7.8-4.9,12.6-6.6s9.4-2.4,13.6-2.2h89.6
			c6.3,0,11.4,2,15.5,6.1c2.9,2.9,4.7,6.3,5.2,10.3c0.6,3.9,0.4,7.9-0.5,12l-32.3,104.4c-1.6,5.6-4.9,10.1-10.1,13.5
			s-10.7,5.1-16.5,5.1h-33c-0.9,0-2,0.3-3.4,1c-1.3,0.7-2.4,1.3-3,2c-3.8,5.6-7.2,13-10.1,22.2c-2.7,8.1-5.1,18.8-7.2,32.2
			c-2.1,13.4-3.1,30.3-2.9,50.7c-0.2,20.4,0.7,37.4,2.9,51c2.1,13.6,4.5,24.4,7.1,32.3s5,13.6,7.2,17l3.4,5.1c0.4,0.4,1.3,1,2.7,1.7
			c1.3,0.7,2.5,1,3.4,1l38.7-0.3c7.6,0.5,14.1,3.4,19.5,8.8c3.8,3.8,6.2,7.5,7.1,11.1l0.3,0.3l26.6,103.4
			C372.9,525,372,531.5,368.4,536.9z"/>
	</g>
</g>
</svg>
