<?xml version="1.0" encoding="utf-8"?>
<!-- Generator: Adobe Illustrator 22.1.0, SVG Export Plug-In . SVG Version: 6.00 Build 0)  -->
<svg version="1.1" id="Capa_1" xmlns="http://www.w3.org/2000/svg" xmlns:xlink="http://www.w3.org/1999/xlink" x="0px" y="0px"
	 viewBox="0 0 512 512" style="enable-background:new 0 0 512 512;" xml:space="preserve">
<style type="text/css">
	.st0{fill:#A47B08;}
</style>
<g>
	<g>
		<path class="st0" d="M292.1,0.7c-4.2,0-7.6,3.4-7.6,7.6v20.1c0,4.2,3.4,7.6,7.6,7.6s7.6-3.4,7.6-7.6V8.3
			C299.7,4.1,296.3,0.7,292.1,0.7z"/>
	</g>
</g>
<g>
	<g>
		<path class="st0" d="M292.1,55c-4.2,0-7.6,3.4-7.6,7.6v20.1c0,4.2,3.4,7.6,7.6,7.6s7.6-3.4,7.6-7.6V62.6
			C299.7,58.4,296.3,55,292.1,55z"/>
	</g>
</g>
<g>
	<g>
		<path class="st0" d="M329.3,37.9h-20.1c-4.2,0-7.6,3.4-7.6,7.6s3.4,7.6,7.6,7.6h20.1c4.2,0,7.6-3.4,7.6-7.6S333.5,37.9,329.3,37.9
			z"/>
	</g>
</g>
<g>
	<g>
		<path class="st0" d="M275,37.9h-20.1c-4.2,0-7.6,3.4-7.6,7.6s3.4,7.6,7.6,7.6H275c4.2,0,7.6-3.4,7.6-7.6S279.2,37.9,275,37.9z"/>
	</g>
</g>
<g>
	<g>
		<path class="st0" d="M56.3,496.1H30c-8.2,0-14.8-6.6-14.8-14.8V198.7c0-4.2-3.4-7.6-7.6-7.6S0,194.5,0,198.7v282.6
			c0,16.5,13.5,30,30,30h26.3c4.2,0,7.6-3.4,7.6-7.6S60.5,496.1,56.3,496.1z"/>
	</g>
</g>
<g>
	<g>
		<path class="st0" d="M504.4,191.1c-4.2,0-7.6,3.4-7.6,7.6v282.6c0,8.2-6.6,14.8-14.8,14.8H263.6v-12.2H455
			c16.7,0,30.2-13.6,30.2-30.2v-30.3V184.5v-30.3c0-16.7-13.6-30.2-30.2-30.2h-46.8c-4.2,0-7.6,3.4-7.6,7.6s3.4,7.6,7.6,7.6H455
			c8.3,0,15,6.7,15,15v30.3v238.8c0,8.3-6.7,15-15,15H304c-15.7,0-30.1,6.4-40.4,17.3V179.6c0-22.3,18.1-40.4,40.4-40.4h20
			c4.2,0,7.6-3.4,7.6-7.6s-3.4-7.6-7.6-7.6h-20c-20.4,0-38.3,11.1-48,27.6c-9.7-16.5-27.5-27.6-48-27.6h-32.2
			c-4.2,0-7.6,3.4-7.6,7.6s3.4,7.6,7.6,7.6H208c22.3,0,40.4,18.1,40.4,40.4v276.1c-10.3-10.9-24.7-17.3-40.4-17.3H57
			c-8.3,0-15-6.7-15-15V184.5v-30.3c0-8.3,6.7-15,15-15h53.9c4.2,0,7.6-3.4,7.6-7.6c0-4.2-3.4-7.6-7.6-7.6H57
			c-16.7,0-30.2,13.6-30.2,30.2v30.3v238.8v30.3c0,16.7,13.6,30.2,30.2,30.2h191.4v12.2H81.6c-4.2,0-7.6,3.4-7.6,7.6
			s3.4,7.6,7.6,7.6H482c16.6,0,30-13.5,30-30V198.7C512,194.5,508.6,191.1,504.4,191.1z M304,453.6h151c5.5,0,10.6-1.5,15-4v4.1
			c0,8.3-6.7,15-15,15H272.5C280,459.3,291.4,453.6,304,453.6z M57,468.7c-8.3,0-15-6.7-15-15v-4.1c4.4,2.5,9.6,4,15,4h151
			c12.6,0,24,5.7,31.5,15.1L57,468.7L57,468.7z"/>
	</g>
</g>
<g>
	<g>
		<path class="st0" d="M204.2,193.7h-123c-4.2,0-7.6,3.4-7.6,7.6s3.4,7.6,7.6,7.6h123c4.2,0,7.6-3.4,7.6-7.6
			S208.4,193.7,204.2,193.7z"/>
	</g>
</g>
<g>
	<g>
		<path class="st0" d="M204.2,230.9h-123c-4.2,0-7.6,3.4-7.6,7.6s3.4,7.6,7.6,7.6h123c4.2,0,7.6-3.4,7.6-7.6
			C211.9,234.3,208.4,230.9,204.2,230.9z"/>
	</g>
</g>
<g>
	<g>
		<path class="st0" d="M204.2,305.4h-27.3c-4.2,0-7.6,3.4-7.6,7.6s3.4,7.6,7.6,7.6h27.3c4.2,0,7.6-3.4,7.6-7.6
			C211.9,308.8,208.4,305.4,204.2,305.4z"/>
	</g>
</g>
<g>
	<g>
		<path class="st0" d="M151.6,305.4H81.2c-4.2,0-7.6,3.4-7.6,7.6s3.4,7.6,7.6,7.6h70.4c4.2,0,7.6-3.4,7.6-7.6
			C159.2,308.8,155.8,305.4,151.6,305.4z"/>
	</g>
</g>
<g>
	<g>
		<path class="st0" d="M204.2,379.8h-123c-4.2,0-7.6,3.4-7.6,7.6s3.4,7.6,7.6,7.6h123c4.2,0,7.6-3.4,7.6-7.6
			S208.4,379.8,204.2,379.8z"/>
	</g>
</g>
<g>
	<g>
		<path class="st0" d="M204.2,268.1h-123c-4.2,0-7.6,3.4-7.6,7.6s3.4,7.6,7.6,7.6h123c4.2,0,7.6-3.4,7.6-7.6
			S208.4,268.1,204.2,268.1z"/>
	</g>
</g>
<g>
	<g>
		<path class="st0" d="M204.2,342.6h-123c-4.2,0-7.6,3.4-7.6,7.6s3.4,7.6,7.6,7.6h123c4.2,0,7.6-3.4,7.6-7.6
			S208.4,342.6,204.2,342.6z"/>
	</g>
</g>
<g>
	<g>
		<path class="st0" d="M331.6,230.9h-18c-4.2,0-7.6,3.4-7.6,7.6s3.4,7.6,7.6,7.6h18c4.2,0,7.6-3.4,7.6-7.6S335.8,230.9,331.6,230.9z
			"/>
	</g>
</g>
<g>
	<g>
		<path class="st0" d="M436.6,230.9h-34.5c-4.2,0-7.6,3.4-7.6,7.6s3.4,7.6,7.6,7.6h34.5c4.2,0,7.6-3.4,7.6-7.6
			S440.8,230.9,436.6,230.9z"/>
	</g>
</g>
<g>
	<g>
		<path class="st0" d="M436.6,305.4h-123c-4.2,0-7.6,3.4-7.6,7.6s3.4,7.6,7.6,7.6h123c4.2,0,7.6-3.4,7.6-7.6
			C444.2,308.8,440.8,305.4,436.6,305.4z"/>
	</g>
</g>
<g>
	<g>
		<path class="st0" d="M436.6,379.8h-123c-4.2,0-7.6,3.4-7.6,7.6s3.4,7.6,7.6,7.6h123c4.2,0,7.6-3.4,7.6-7.6
			S440.8,379.8,436.6,379.8z"/>
	</g>
</g>
<g>
	<g>
		<path class="st0" d="M436.6,268.1h-123c-4.2,0-7.6,3.4-7.6,7.6s3.4,7.6,7.6,7.6h123c4.2,0,7.6-3.4,7.6-7.6
			S440.8,268.1,436.6,268.1z"/>
	</g>
</g>
<g>
	<g>
		<path class="st0" d="M331.5,342.6h-17.9c-4.2,0-7.6,3.4-7.6,7.6s3.4,7.6,7.6,7.6h17.9c4.2,0,7.6-3.4,7.6-7.6
			S335.7,342.6,331.5,342.6z"/>
	</g>
</g>
<g>
	<g>
		<path class="st0" d="M436.6,342.6h-79.8c-4.2,0-7.6,3.4-7.6,7.6s3.4,7.6,7.6,7.6h79.8c4.2,0,7.6-3.4,7.6-7.6
			S440.8,342.6,436.6,342.6z"/>
	</g>
</g>
<g>
	<g>
		<path class="st0" d="M206.2,63.5L188.8,60c-14.1-2.9-25.1-13.9-28-28l-3.5-17.3c-1.5-7.2-7.6-12.2-15-12.2c-7.4,0-13.5,5-15,12.2
			L123.9,32c-2.9,14.1-13.8,25.1-28,28l-17.3,3.5c-7.2,1.5-12.2,7.6-12.2,15c0,7.3,5,13.5,12.2,15L95.9,97c14.1,2.9,25.1,13.8,28,28
			l3.5,17.4c1.5,7.2,7.6,12.2,15,12.2c0,0,0,0,0,0c7.4,0,13.5-5,15-12.2l3.5-17.3c2.9-14.1,13.9-25.1,28-28l17.3-3.5
			c7.2-1.5,12.2-7.6,12.2-15S213.4,65,206.2,63.5z M203.2,78.5C203.2,78.5,203.2,78.5,203.2,78.5l-17.4,3.5
			c-20.1,4.1-35.8,19.7-39.9,39.9l-3.5,17.3c0,0,0,0,0,0c0,0-0.1,0-0.1,0c0,0,0,0,0,0l-3.5-17.3c-4.1-20.1-19.7-35.8-39.9-39.9
			l-17.3-3.5c0,0,0,0,0,0c0,0,0-0.1,0-0.1c0,0,0,0,0,0l17.3-3.5c20.1-4.1,35.8-19.7,39.9-39.9l3.5-17.3c0,0,0,0,0,0c0,0,0.1,0,0.1,0
			c0,0,0,0,0,0l3.5,17.3c4.1,20.1,19.7,35.8,39.9,39.9l17.3,3.5c0,0,0,0,0,0C203.2,78.5,203.2,78.5,203.2,78.5z"/>
	</g>
</g>
<g>
	<g>
		<path class="st0" d="M441.5,160.2L421,156c-17.2-3.5-30.6-16.9-34.1-34.1l-4.2-20.5c-1.6-7.9-8.3-13.3-16.3-13.3
			s-14.7,5.5-16.3,13.3l-4.2,20.5c-3.5,17.2-16.9,30.6-34.1,34.1l-20.5,4.2c-7.9,1.6-13.4,8.3-13.4,16.3s5.5,14.7,13.4,16.3
			l20.5,4.2c17.2,3.5,30.6,16.9,34.1,34.1l4.2,20.5c1.6,7.9,8.3,13.4,16.3,13.4s14.7-5.5,16.3-13.4l4.2-20.5
			c3.5-17.2,16.9-30.6,34.1-34.1l20.5-4.2c7.9-1.6,13.3-8.3,13.3-16.3S449.3,161.8,441.5,160.2z M438.4,177.9l-20.5,4.2
			c-23.2,4.7-41.3,22.8-46,46l-4.2,20.5c-0.1,0.4-0.2,1.2-1.4,1.2s-1.3-0.8-1.4-1.2l-4.2-20.5c-4.7-23.2-22.8-41.3-46-46l-20.5-4.2
			c-0.4-0.1-1.2-0.2-1.2-1.4s0.8-1.3,1.2-1.4l20.5-4.2c23.2-4.7,41.3-22.8,46-46l4.2-20.5c0.1-0.4,0.2-1.2,1.4-1.2s1.3,0.8,1.4,1.2
			l4.2,20.5c4.7,23.2,22.8,41.3,46,46l20.5,4.2c0.4,0.1,1.2,0.2,1.2,1.4S438.8,177.8,438.4,177.9z"/>
	</g>
</g>
</svg>
