<?xml version="1.0" encoding="utf-8"?>
<!-- Generator: Adobe Illustrator 22.1.0, SVG Export Plug-In . SVG Version: 6.00 Build 0)  -->
<svg version="1.1" id="Capa_1" xmlns="http://www.w3.org/2000/svg" xmlns:xlink="http://www.w3.org/1999/xlink" x="0px" y="0px"
	 viewBox="0 0 512 512" style="enable-background:new 0 0 512 512;" xml:space="preserve">
<style type="text/css">
	.st0{fill:#A47B08;}
</style>
<g>
	<g>
		<path class="st0" d="M524,440.9l-34.2-68.4l-41.1-82.1c-0.2-0.4-0.4-0.7-0.6-1c-1.4-1.9-3.6-3.1-6.1-3.1h-45.2l0,0h-34.3
			c4.8-8.9,9.3-18,13.4-27.1c6.5-14.7,11.6-28.6,15.1-41.3c3.8-13.9,5.8-26.3,5.8-37c0-13.6-2.2-26.9-6.7-39.6
			c-4.3-12.3-10.5-23.8-18.5-34.1c0,0,0-0.1-0.1-0.1l0,0c-5.5-7.1-11.8-13.6-18.7-19.3c-7-5.7-14.6-10.7-22.6-14.7
			c-8.2-4.1-16.9-7.3-25.7-9.4c-9.2-2.2-18.6-3.3-28.1-3.3l0,0l0,0c-14.2,0-28,2.4-41.3,7.3c-12.8,4.7-24.6,11.4-35.1,20.1
			c-3.2,2.6-3.7,7.4-1,10.6c1.4,1.8,3.6,2.8,5.8,2.8c1.7,0,3.4-0.6,4.8-1.7c9.2-7.6,19.6-13.5,30.7-17.5c11.5-4.2,23.7-6.3,36.1-6.3
			c8.3,0,16.6,1,24.6,2.9c7.8,1.9,15.4,4.6,22.5,8.2c7,3.5,13.7,7.9,19.8,12.9c6.1,5,11.6,10.7,16.4,16.9c7,9,12.4,19.1,16.2,29.8
			c3.9,11.1,5.8,22.8,5.8,34.7c0,13.6-4.2,32.5-11.9,53.1c-6.7,18.1-15.9,37.3-26.3,55.3c-0.4,0.5-0.7,1-0.9,1.6
			c-6.3,10.9-13.1,21.2-20,30.6c-9.3,12.6-18.5,22.9-26.7,29.8c-4,3.4-8,6.2-11.4,7.9c-0.2,0.1-0.4,0.2-0.6,0.3v-50.6
			c0-4.2-3.4-7.5-7.5-7.5s-7.5,3.4-7.5,7.5v50.6c-1.3-0.6-2.7-1.4-4.1-2.3c-8.6-5.4-19.3-15.9-30-29.7
			c-8.4-10.7-16.8-23.3-24.6-36.6c-0.2-0.6-0.6-1.1-1-1.7c-6.8-11.7-13.1-24-18.5-36.2c-12.6-28.1-19.7-54.4-19.7-72.1
			c0-22,6.7-43.1,19.5-61c2.4-3.4,1.6-8.1-1.8-10.5c-1.3-0.9-2.8-1.4-4.4-1.4c-2.4,0-4.7,1.2-6.1,3.2c-7.1,10-12.6,20.9-16.4,32.5
			c-3.9,12-5.9,24.5-5.9,37.2c0,15.8,4.3,35.5,12.8,58.3c5.7,15.2,13.1,31.4,21.5,47.1h-49.4H95.7c-2.9,0-5.5,1.6-6.7,4.2
			l-15.1,30.1l0,0L43.8,381l0,0l-30.1,60.2c-1.2,2.3-1,5.1,0.3,7.3s3.8,3.6,6.4,3.6h75.3h376.4l0,0h45.2c2.6,0,5-1.3,6.4-3.6
			C525.1,446,525.2,443.2,524,440.9z M100.3,301.2h28.3l-7.5,15.1H92.8L100.3,301.2z M91,436.7H32.6l22.6-45.2h58.5L91,436.7z
			 M107.8,436.7l24.7-49.3c1.2-2.3,1-5.1-0.3-7.3c-1.4-2.2-3.8-3.6-6.4-3.6H62.7l22.6-45.2h40.5c2.9,0,5.5-1.6,6.7-4.2l13-26h53.3
			c6.2,10.4,12.7,20.3,19.2,29.1c10.1,13.7,19.9,24.5,29.1,32.4c5.1,4.3,9.8,7.5,14.4,9.9c5.2,2.6,10,3.9,14.6,3.9
			c0.1,0,0.2,0,0.3,0c0.3,0,0.5,0,0.8,0c5.9-0.2,12-2.3,18.9-6.6c5.4-3.4,11-8,16.9-13.8c5.4-5.4,11.1-11.9,17-19.3
			c8.2-10.5,16.3-22.4,24.1-35.5h38.2L452,420.7c1.3,2.6,3.9,4.2,6.7,4.2c1.2,0,2.3-0.3,3.4-0.8c3.7-1.9,5.2-6.4,3.4-10.1l0,0
			L409,301.2h28.3l67.8,135.5H107.8L107.8,436.7z"/>
	</g>
</g>
<g>
	<g>
		<g>
			<path class="st0" d="M381.4,396.7l-15.1-45.2c-1-3.1-3.9-5.1-7.1-5.1h-28.8c-4.2,0-7.5,3.4-7.5,7.5s3.4,7.5,7.5,7.5h23.4l10,30.1
				H173.9l10-30.1h23.4c4.2,0,7.5-3.4,7.5-7.5s-3.4-7.5-7.5-7.5h-28.8c-3.2,0-6.1,2.1-7.1,5.1l-15.1,45.2c-0.8,2.3-0.4,4.8,1,6.8
				s3.7,3.1,6.1,3.1h210.8c2.4,0,4.7-1.2,6.1-3.1C381.8,401.5,382.2,399,381.4,396.7z"/>
		</g>
	</g>
</g>
<g>
	<path class="st0" d="M278,234c-28.9,0-52.5-23.6-52.5-52.5S249.1,129,278,129c28.9,0,52.5,23.6,52.5,52.5S306.9,234,278,234z
		 M278,142c-21.8,0-39.5,17.7-39.5,39.5S256.2,221,278,221s39.5-17.7,39.5-39.5S299.8,142,278,142z"/>
</g>
</svg>
