<?xml version="1.0" encoding="utf-8"?>
<!-- Generator: Adobe Illustrator 22.1.0, SVG Export Plug-In . SVG Version: 6.00 Build 0)  -->
<svg version="1.1" id="Capa_1" xmlns="http://www.w3.org/2000/svg" xmlns:xlink="http://www.w3.org/1999/xlink" x="0px" y="0px"
	 viewBox="0 0 512 512" style="enable-background:new 0 0 512 512;" xml:space="preserve">
<style type="text/css">
	.st0{fill:#3B3B3B;}
	.st1{fill:#ffbf0a;}
</style>
<path class="st0" d="M256,0.1C117.7-2.7,3.2,107,0,245.4C0.4,315.8,31.6,382.5,85.4,428v73.4c0,5.9,4.8,10.7,10.7,10.7
	c2,0,4-0.6,5.7-1.6l59.5-37.1c30.3,11.6,62.5,17.5,94.9,17.4c138.4,2.7,252.8-107,256-245.3C508.9,107,394.4-2.7,256,0.1z"/>
<path class="st1" d="M424.6,175c-3.2-4.3-9-5.5-13.7-3L300,232.5l-69-59.2c-4.2-3.6-10.5-3.4-14.5,0.6l-128,128
	c-4.2,4.2-4.1,10.9,0,15.1c3.3,3.3,8.5,4.1,12.6,1.8l110.9-60.5l69.1,59.2c4.2,3.6,10.5,3.4,14.5-0.6l128-128
	C427.4,185.1,427.8,179.2,424.6,175z"/>
</svg>
