<?xml version="1.0" encoding="utf-8"?>
<!-- Generator: Adobe Illustrator 22.1.0, SVG Export Plug-In . SVG Version: 6.00 Build 0)  -->
<svg version="1.1" id="Capa_1" xmlns="http://www.w3.org/2000/svg" xmlns:xlink="http://www.w3.org/1999/xlink" x="0px" y="0px"
	 viewBox="0 0 512 512" style="enable-background:new 0 0 512 512;" xml:space="preserve">
<style type="text/css">
	.st0{fill:#A47B08;}
</style>
<g>
	<g>
		<path class="st0" d="M456.8,63.3L268.4,2c-8.1-2.6-16.6-2.6-24.7,0l-56.5,18.4c-3.9,1.3-6.1,5.5-4.8,9.5c1.3,3.9,5.5,6.1,9.5,4.8
			l56.5-18.4c5-1.6,10.5-1.6,15.5,0l162.5,52.9V82l-14.7,4.8v-7.5c0-3.3-2.1-6.1-5.2-7.1c-97-31.1-203.8-31.1-300.8,0
			c-3.1,1-5.2,3.9-5.2,7.1v7.5L65.9,75.6l97.3-31.7c3.9-1.3,6.1-5.5,4.8-9.5c-1.3-3.9-5.5-6.1-9.5-4.8L55.2,63.3
			c-5.3,1.7-8.9,6.7-8.9,12.3c0,5.6,3.6,10.6,8.9,12.3l45.2,14.7v73c0,2.4,1.1,4.6,3.1,6.1c1.9,1.4,4.4,1.8,6.7,1.1
			c0.1,0,0.3-0.1,0.4-0.1c2.7,14.1,4.9,25.6,6.7,35.7c-15.7,3.8-27.3,18-27.3,34.8c0,9.6,3.8,18.5,10.5,25.3
			c6.2,6.2,14.2,9.8,22.9,10.4c-1.3,19.6-5.6,42.3-12.8,80.1c-1.4,6.8-2.1,13.7-2.1,20.5c0,16.4,4,30.9,12,43
			c-0.2,2.1-0.3,4.3-0.3,6.5v65.7c0,4.1,3.4,7.5,7.5,7.5h256.6c4.1,0,7.5-3.4,7.5-7.5v-65.7c0-35.8-22.9-66.4-54.7-78
			c0,0-0.1,0-0.1,0c-0.9-0.3-1.7-0.6-2.6-0.9c-0.6-0.2-1.2-0.4-1.8-0.5c-0.9-0.3-1.8-0.5-2.7-0.8c-0.5-0.1-1-0.2-1.5-0.4
			c-0.8-0.2-1.6-0.4-2.3-0.5c-0.5-0.1-1-0.2-1.5-0.3c-0.8-0.1-1.6-0.3-2.3-0.4c-0.5-0.1-1-0.2-1.5-0.2c-0.8-0.1-1.6-0.2-2.4-0.3
			c-0.5-0.1-1-0.1-1.5-0.2c-0.9-0.1-1.8-0.1-2.7-0.2c-0.4,0-0.8-0.1-1.3-0.1c-1.3-0.1-2.6-0.1-4-0.1h-3.3v-16.4
			c23.4-10.7,42.7-28.6,55.2-51.1l12.7,0c1.3,20.8,5.6,44.1,13.2,83.4c0,0,0,0.1,0,0.1c1.2,5.8,1.8,11.7,1.8,17.5
			c0,4.1,3.4,7.5,7.5,7.5s7.5-3.4,7.5-7.5c0-6.8-0.7-13.7-2.1-20.5c-7.3-38.1-11.6-60.9-12.9-80.6c8.7-0.6,16.8-4.2,23-10.5
			c6.8-6.8,10.5-15.8,10.4-25.3c0-16.8-11.6-30.8-27.2-34.7c1.8-9.9,4-21.2,6.6-35.3c0.2,0,0.3,0.1,0.4,0.1c0.7,0.2,1.5,0.4,2.3,0.4
			c1.6,0,3.1-0.5,4.4-1.4c1.9-1.4,3.1-3.7,3.1-6.1v-73l14.7-4.8V230c0,4.1,3.4,7.5,7.5,7.5s7.5-3.4,7.5-7.5V92.9l15.5-5.1
			c5.3-1.7,8.9-6.7,8.9-12.3C465.7,70,462.1,65,456.8,63.3z M111.2,267.8c-3.9-3.9-6.1-9.1-6.1-14.7c0-11.5,9.3-20.8,20.8-20.8
			l10.6,0c0,0.5,0,0.9,0,1.4c0,0.3,0,0.6,0,0.9c0,1.1,0.1,2.1,0.1,3.2c0,0.2,0,0.3,0,0.5c0.1,0.9,0.1,1.8,0.2,2.7
			c0,0.3,0.1,0.7,0.1,1c0.1,0.8,0.1,1.5,0.2,2.3c0,0.3,0.1,0.6,0.1,1c0.1,1,0.3,2.1,0.4,3.1c0,0,0,0.1,0,0.1c0.1,1,0.3,2,0.5,3
			c0.1,0.3,0.1,0.6,0.2,1c0.1,0.7,0.3,1.5,0.4,2.2c0.1,0.3,0.1,0.7,0.2,1c0.2,0.9,0.4,1.8,0.6,2.6c0,0.1,0.1,0.3,0.1,0.4
			c0.2,1,0.5,2,0.8,3c0.1,0.3,0.2,0.6,0.2,0.9c0.2,0.7,0.4,1.4,0.6,2.2c0.1,0.3,0.2,0.7,0.3,1c0.2,0.8,0.5,1.6,0.8,2.4
			c0.1,0.2,0.1,0.4,0.2,0.6c0.3,1,0.7,2,1,2.9c0.1,0.3,0.2,0.5,0.3,0.8c0.2,0.5,0.4,0.9,0.5,1.4l-18.5,0c0,0,0,0,0,0
			C120.3,273.8,115.1,271.7,111.2,267.8z M125.1,178.2c19-5.4,38.5-9.6,58.3-12.6c-4.3,17.3-20.1,30.2-38.6,30.2l-0.2,0
			c-0.2,0-0.5,0-0.7,0c-4.1,0-7.5,3.4-7.5,7.5v14l-4,0c-1.9-10.6-4.2-22.6-7.1-37.6c0,0,0-0.1,0-0.1
			C125.2,179.1,125.2,178.7,125.1,178.2z M126,408.5c-1.6-5.9-2.5-12.3-2.5-19.1c0-5.8,0.6-11.7,1.8-17.5c0,0,0-0.1,0-0.1
			c7.5-39.1,11.9-62.3,13.2-83l13,0c12.4,22.4,31.7,40.2,55,50.8v16.4h-3.3c-1.3,0-2.6,0-4,0.1c-0.4,0-0.9,0.1-1.3,0.1
			c-0.9,0.1-1.8,0.1-2.7,0.2c-0.5,0-1,0.1-1.5,0.2c-0.8,0.1-1.6,0.2-2.4,0.3c-0.5,0.1-1,0.2-1.5,0.2c-0.8,0.1-1.6,0.3-2.3,0.4
			c-0.5,0.1-1,0.2-1.5,0.3c-0.8,0.2-1.6,0.4-2.3,0.5c-0.5,0.1-1,0.2-1.5,0.4c-0.9,0.2-1.8,0.5-2.7,0.8c-0.6,0.2-1.2,0.4-1.8,0.5
			c-0.9,0.3-1.7,0.6-2.6,0.9c0,0-0.1,0-0.1,0C152.6,369,134.7,386.4,126,408.5z M336.9,377c23.5,10.7,39.9,34.4,39.9,61.8V497H135.2
			v-58.2c0-27.4,16.4-51.1,39.9-61.8l74.9,98.5c1.4,1.9,3.6,3,6,3c2.3,0,4.6-1.1,6-3L336.9,377z M308.9,370.9c1.1,0,2.3,0,3.4,0.1
			c0.4,0,0.7,0.1,1.1,0.1c0.8,0,1.5,0.1,2.3,0.2c0.4,0,0.8,0.1,1.3,0.1c0.7,0.1,1.4,0.2,2,0.3c0.5,0.1,0.9,0.2,1.4,0.2
			c0.5,0.1,1,0.2,1.4,0.3L256,458.6l-65.7-86.4c0.5-0.1,1-0.2,1.4-0.3c0.5-0.1,0.9-0.2,1.4-0.2c0.7-0.1,1.4-0.2,2-0.3
			c0.4,0,0.8-0.1,1.3-0.1c0.8-0.1,1.5-0.1,2.3-0.2c0.4,0,0.7-0.1,1.1-0.1c1.1-0.1,2.2-0.1,3.4-0.1h3.7c0,0.1,0,0.2,0.1,0.3
			c0,0.3,0.1,0.6,0.1,0.9c0.1,0.4,0.1,0.8,0.2,1.2c0.1,0.3,0.1,0.6,0.2,0.9c0.1,0.4,0.2,0.8,0.3,1.1c0.1,0.3,0.1,0.6,0.2,0.9
			c0.1,0.4,0.2,0.7,0.3,1.1c0.1,0.3,0.2,0.6,0.3,0.9c0.1,0.4,0.2,0.7,0.4,1.1c0.1,0.3,0.2,0.6,0.3,0.8c0.1,0.4,0.3,0.7,0.4,1.1
			c0.1,0.3,0.2,0.5,0.3,0.8c0.2,0.4,0.3,0.7,0.5,1.1c0.1,0.2,0.2,0.5,0.3,0.7c0.2,0.4,0.4,0.8,0.6,1.3c0.1,0.2,0.2,0.4,0.3,0.5
			c0.3,0.6,0.7,1.2,1,1.7c0.1,0.2,0.3,0.4,0.4,0.6c0.2,0.4,0.5,0.7,0.7,1.1c0.2,0.2,0.3,0.5,0.5,0.7c0.2,0.3,0.4,0.6,0.7,0.9
			c0.2,0.2,0.4,0.5,0.6,0.7c0.2,0.3,0.4,0.6,0.7,0.9c0.2,0.2,0.4,0.5,0.6,0.7c0.2,0.3,0.5,0.5,0.7,0.8c0.2,0.2,0.4,0.5,0.6,0.7
			c0.2,0.3,0.5,0.5,0.7,0.8c0.2,0.2,0.4,0.4,0.7,0.7c0.3,0.3,0.5,0.5,0.8,0.7c0.2,0.2,0.5,0.4,0.7,0.6c0.3,0.2,0.5,0.5,0.8,0.7
			c0.2,0.2,0.5,0.4,0.7,0.6c0.3,0.2,0.6,0.5,0.9,0.7c0.2,0.2,0.5,0.4,0.7,0.5c0.3,0.2,0.6,0.5,1,0.7c0.2,0.2,0.4,0.3,0.7,0.5
			c0.4,0.3,0.8,0.5,1.3,0.8c0.1,0.1,0.3,0.2,0.4,0.3c0.6,0.3,1.1,0.7,1.7,1c0.2,0.1,0.4,0.2,0.6,0.3c0.4,0.2,0.8,0.4,1.2,0.6
			c0.3,0.1,0.5,0.2,0.8,0.4c0.4,0.2,0.7,0.3,1.1,0.5c0.3,0.1,0.5,0.2,0.8,0.3c0.4,0.1,0.7,0.3,1.1,0.4c0.3,0.1,0.6,0.2,0.9,0.3
			c0.4,0.1,0.7,0.3,1.1,0.4c0.3,0.1,0.6,0.2,0.9,0.3c0.4,0.1,0.7,0.2,1.1,0.3c0.3,0.1,0.6,0.2,0.9,0.2c0.4,0.1,0.8,0.2,1.1,0.3
			c0.3,0.1,0.6,0.1,0.9,0.2c0.4,0.1,0.8,0.1,1.2,0.2c0.3,0,0.6,0.1,0.9,0.1c0.4,0.1,0.8,0.1,1.3,0.2c0.3,0,0.6,0.1,0.8,0.1
			c0.5,0,0.9,0.1,1.4,0.1c0.2,0,0.5,0,0.7,0c0.7,0,1.4,0.1,2.2,0.1H262c0.7,0,1.4,0,2.2-0.1c0.2,0,0.5,0,0.7,0
			c0.5,0,0.9-0.1,1.4-0.1c0.3,0,0.6-0.1,0.8-0.1c0.4,0,0.8-0.1,1.3-0.2c0.3,0,0.6-0.1,0.9-0.1c0.4-0.1,0.8-0.1,1.2-0.2
			c0.3-0.1,0.6-0.1,0.9-0.2c0.4-0.1,0.8-0.2,1.1-0.3c0.3-0.1,0.6-0.2,0.9-0.2c0.4-0.1,0.7-0.2,1.1-0.3c0.3-0.1,0.6-0.2,0.9-0.3
			c0.4-0.1,0.7-0.2,1.1-0.4c0.3-0.1,0.6-0.2,0.9-0.3c0.4-0.1,0.7-0.3,1.1-0.4c0.3-0.1,0.5-0.2,0.8-0.3c0.4-0.2,0.7-0.3,1.1-0.5
			c0.3-0.1,0.5-0.2,0.8-0.4c0.4-0.2,0.8-0.4,1.2-0.6c0.2-0.1,0.4-0.2,0.6-0.3c0.6-0.3,1.2-0.7,1.7-1c0.1-0.1,0.3-0.2,0.4-0.3
			c0.4-0.3,0.9-0.5,1.3-0.8c0.2-0.2,0.4-0.3,0.7-0.5c0.3-0.2,0.7-0.5,1-0.7c0.2-0.2,0.5-0.4,0.7-0.5c0.3-0.2,0.6-0.5,0.9-0.7
			c0.2-0.2,0.5-0.4,0.7-0.6c0.3-0.2,0.6-0.5,0.8-0.7c0.2-0.2,0.5-0.4,0.7-0.6c0.3-0.2,0.5-0.5,0.8-0.7c0.2-0.2,0.4-0.4,0.7-0.7
			c0.3-0.3,0.5-0.5,0.7-0.8c0.2-0.2,0.4-0.5,0.6-0.7c0.2-0.3,0.5-0.5,0.7-0.8c0.2-0.2,0.4-0.5,0.6-0.7c0.2-0.3,0.5-0.6,0.7-0.9
			c0.2-0.2,0.4-0.5,0.6-0.7c0.2-0.3,0.4-0.6,0.7-0.9c0.2-0.2,0.3-0.5,0.5-0.7c0.2-0.4,0.5-0.7,0.7-1.1c0.1-0.2,0.3-0.4,0.4-0.6
			c0.3-0.6,0.7-1.1,1-1.7c0.1-0.2,0.2-0.4,0.3-0.5c0.2-0.4,0.4-0.8,0.6-1.3c0.1-0.2,0.2-0.5,0.3-0.7c0.2-0.4,0.3-0.7,0.5-1.1
			c0.1-0.3,0.2-0.5,0.3-0.8c0.1-0.4,0.3-0.7,0.4-1.1c0.1-0.3,0.2-0.6,0.3-0.8c0.1-0.4,0.3-0.7,0.4-1.1c0.1-0.3,0.2-0.6,0.3-0.9
			c0.1-0.4,0.2-0.7,0.3-1.1c0.1-0.3,0.2-0.6,0.2-0.9c0.1-0.4,0.2-0.8,0.3-1.1c0.1-0.3,0.1-0.6,0.2-0.9c0.1-0.4,0.1-0.8,0.2-1.2
			c0-0.3,0.1-0.6,0.1-0.9c0-0.1,0-0.2,0.1-0.3L308.9,370.9L308.9,370.9z M221.4,364.9v-1.5v-18.2c0.1,0,0.1,0,0.2,0.1
			c1.2,0.4,2.4,0.7,3.7,1c0.3,0.1,0.6,0.1,0.9,0.2c1.1,0.3,2.2,0.5,3.3,0.8c0.2,0,0.4,0.1,0.6,0.1c1.2,0.3,2.5,0.5,3.7,0.8
			c0.3,0.1,0.6,0.1,0.9,0.2c1.1,0.2,2.3,0.4,3.4,0.6c0.1,0,0.3,0,0.4,0.1c1.3,0.2,2.5,0.3,3.8,0.5c0.3,0,0.6,0.1,0.9,0.1
			c1.2,0.1,2.4,0.2,3.7,0.3c0.1,0,0.2,0,0.3,0c1.3,0.1,2.6,0.2,3.9,0.2c0.3,0,0.6,0,0.9,0c1.3,0,2.6,0.1,3.9,0.1s2.6,0,3.9-0.1
			c0.3,0,0.6,0,0.9,0c1.3-0.1,2.6-0.1,3.9-0.2c0.1,0,0.2,0,0.3,0c1.2-0.1,2.4-0.2,3.7-0.3c0.3,0,0.6-0.1,0.9-0.1
			c1.3-0.1,2.6-0.3,3.8-0.5c0.1,0,0.3,0,0.4-0.1c1.2-0.2,2.3-0.4,3.5-0.6c0.3-0.1,0.6-0.1,0.9-0.2c1.3-0.2,2.5-0.5,3.7-0.8
			c0.2,0,0.4-0.1,0.6-0.1c1.1-0.2,2.2-0.5,3.3-0.8c0.3-0.1,0.6-0.1,0.9-0.2c1.2-0.3,2.4-0.7,3.7-1c0.1,0,0.1,0,0.2-0.1v18.2v1.5
			c0,1,0,2-0.1,2.9c-1.5,14.4-13.7,25.7-28.5,25.7h-11.9c-14.8,0-27-11.3-28.5-25.7C221.5,366.9,221.4,365.9,221.4,364.9z
			 M360.6,224.3v6.4c0,2.1-0.1,4.1-0.2,6.2c-0.1,1.1-0.2,2.3-0.3,3.4c-1.2,13.1-4.7,25.6-10.6,37.3c-11.4,22.7-30.7,40.5-54.3,50.1
			c-12.5,5.1-25.7,7.6-39.3,7.6c-1.7,0-3.4,0-5.1-0.1c-0.9,0-1.8-0.1-2.7-0.2c-10.8-0.8-21.4-3.3-31.5-7.3
			c-23.4-9.5-42.6-27.2-54.1-49.8c-7.5-14.7-11.2-30.6-11.2-47.2v-6v-14.3c24.5-3,44.2-22.4,47.6-46.9c0.2,0,0.4,0,0.6-0.1
			c1.9-0.2,3.9-0.4,5.8-0.6c0.7-0.1,1.4-0.1,2.1-0.2c1.5-0.1,3-0.3,4.5-0.4c0.4,0,0.8-0.1,1.2-0.1c18.5,12.9,43.7,24.2,71.3,32
			c27.2,7.6,53.9,11,76.1,9.7L360.6,224.3L360.6,224.3z M288.5,179.5c-17.9-5-34.7-11.6-49-19.1c49.8-1.6,100.2,4.4,147.4,17.8
			c-0.1,0.4-0.2,0.9-0.2,1.3c0,0,0,0.1,0,0.1c-2.9,14.9-5.1,26.8-7,37.2l-4.1,0v-21.3c0-2.1-0.9-4.2-2.5-5.6s-3.7-2.1-5.9-1.8
			C345.7,190.6,317,187.5,288.5,179.5z M407,252.5c0,5.6-2.1,10.8-6.1,14.7c-3.9,3.9-9.1,6.1-14.7,6.1l-18.4,0
			c0.2-0.4,0.3-0.9,0.5-1.3c0.1-0.3,0.2-0.6,0.3-0.9c0.4-1,0.7-1.9,1-2.9c0.1-0.2,0.1-0.3,0.1-0.5c0.3-0.8,0.5-1.7,0.8-2.5
			c0.1-0.3,0.2-0.6,0.3-1c0.2-0.7,0.4-1.4,0.6-2.2c0.1-0.3,0.2-0.6,0.3-0.9c0.2-0.9,0.5-1.9,0.7-2.8c0-0.1,0-0.1,0.1-0.2
			c0.2-1,0.5-2,0.7-3c0.1-0.3,0.1-0.6,0.2-0.9c0.1-0.7,0.3-1.5,0.4-2.2c0.1-0.3,0.1-0.7,0.2-1c0.1-0.8,0.3-1.7,0.4-2.5
			c0-0.2,0.1-0.4,0.1-0.6c0.1-1,0.3-2.1,0.4-3.1c0-0.3,0.1-0.5,0.1-0.8c0.1-0.8,0.2-1.6,0.2-2.4c0-0.3,0.1-0.7,0.1-1
			c0.1-0.8,0.1-1.6,0.2-2.4c0-0.3,0-0.6,0.1-0.8c0.1-1.1,0.1-2.1,0.1-3.2c0-0.2,0-0.4,0-0.6c0-0.6,0-1.3,0-1.9l10.5,0c0,0,0,0,0,0
			C397.6,231.8,406.9,241.1,407,252.5z M396.6,97.2C396.6,97.2,396.6,97.2,396.6,97.2v68.2c-57.9-17.2-120.8-23.6-181.9-18.6
			c-2.5,0.2-5.1,0.4-7.6,0.7c-3.4,0.3-6.7,0.7-10.1,1.1c-0.6,0.1-1.2,0.1-1.8,0.2c-1.4,0.2-2.7,0.3-4.1,0.5c0,0,0,0,0,0c0,0,0,0,0,0
			c0,0,0,0,0,0c-25.7,3.4-51.1,8.8-75.7,16V97.3c0,0,0,0,0-0.1V84.8c90.9-27.9,190.3-27.9,281.2,0L396.6,97.2L396.6,97.2z
			 M441.3,77.2V74l4.8,1.6L441.3,77.2z"/>
	</g>
</g>
</svg>
