<?xml version="1.0" encoding="utf-8"?>
<!-- Generator: Adobe Illustrator 22.1.0, SVG Export Plug-In . SVG Version: 6.00 Build 0)  -->
<svg version="1.1" id="Capa_1" xmlns="http://www.w3.org/2000/svg" xmlns:xlink="http://www.w3.org/1999/xlink" x="0px" y="0px"
	 viewBox="0 0 512 512" style="enable-background:new 0 0 512 512;" xml:space="preserve">
<style type="text/css">
	.st0{fill:#A47B08;}
</style>
<g>
	<g>
		<g>
			<path class="st0" d="M388.5,127.2C350.1,88.8,299,67.7,244.8,67.7S139.4,88.8,101,127.2c-38.4,38.4-59.5,89.4-59.5,143.7
				c0,54.3,21.1,105.3,59.5,143.7c38.4,38.4,89.4,59.5,143.7,59.5c54.3,0,105.3-21.1,143.7-59.5c38.4-38.4,59.5-89.4,59.5-143.7
				C448,216.6,426.8,165.6,388.5,127.2L388.5,127.2z M379.5,405.6c-36,36-83.8,55.8-134.7,55.8c-50.9,0-98.7-19.8-134.7-55.8
				c-36-36-55.8-83.8-55.8-134.7c0-50.9,19.8-98.7,55.8-134.7s83.8-55.8,134.7-55.8c50.9,0,98.7,19.8,134.7,55.8
				c36,36,55.8,83.8,55.8,134.7C435.3,321.8,415.5,369.6,379.5,405.6L379.5,405.6z M379.5,405.6"/>
		</g>
		<g>
			<path class="st0" d="M382.9,158.9c-2.2-2.7-6.2-3.1-8.9-0.9c-2.7,2.2-3.1,6.2-0.9,8.9c23.7,29.3,36.8,66.2,36.8,104
				c0,44.1-17.2,85.6-48.4,116.8S288.9,436,244.8,436c-40.7,0-79.8-14.9-110.1-42c-2.6-2.3-6.6-2.1-9,0.5c-2.3,2.6-2.1,6.6,0.5,9
				c32.6,29.2,74.7,45.3,118.6,45.3c47.5,0,92.2-18.5,125.7-52.1c33.6-33.6,52.1-78.2,52.1-125.7
				C422.6,230.2,408.5,190.5,382.9,158.9L382.9,158.9z M382.9,158.9"/>
		</g>
		<g>
			<path class="st0" d="M79.6,270.9c0-91.1,74.1-165.1,165.1-165.1c40.7,0,79.8,14.9,110.1,42c2.6,2.3,6.6,2.1,9-0.5
				c2.3-2.6,2.1-6.6-0.5-9c-32.6-29.2-74.7-45.3-118.6-45.3c-47.5,0-92.2,18.5-125.7,52.1c-33.6,33.6-52.1,78.2-52.1,125.7
				c0,40.7,14.1,80.4,39.7,112c1.3,1.6,3.1,2.4,4.9,2.4c1.4,0,2.8-0.5,4-1.4c2.7-2.2,3.1-6.2,0.9-8.9
				C92.7,345.6,79.6,308.7,79.6,270.9L79.6,270.9z M79.6,270.9"/>
		</g>
	</g>
	<g>
		<path class="st0" d="M202.4,219.3h-23.5v-21.8h46.9v146.7h-23.5V219.3z"/>
		<path class="st0" d="M280.6,219.3h-23.5v-21.8h46.9v146.7h-23.5V219.3z"/>
	</g>
</g>
</svg>
